<svg xmlns="http://www.w3.org/2000/svg" xmlns:xlink="http://www.w3.org/1999/xlink" width="500" zoomAndPan="magnify" viewBox="0 0 375 374.999991" height="500" preserveAspectRatio="xMidYMid meet" version="1.0"><defs><g/><clipPath id="29d4603535"><path d="M 39.570312 11 L 335.070312 11 L 335.070312 364 L 39.570312 364 Z M 39.570312 11 " clip-rule="nonzero"/></clipPath></defs><g clip-path="url(#29d4603535)"><path fill="#0c3954" d="M 326.367188 11.398438 L 49.039062 11.398438 C 43.839844 11.398438 39.679688 15.609375 39.679688 20.746094 L 39.679688 354.183594 C 39.679688 359.386719 43.839844 363.59375 49.039062 363.59375 L 326.367188 363.59375 C 331.503906 363.59375 335.730469 359.386719 335.730469 354.183594 L 335.730469 20.746094 C 335.730469 15.609375 331.503906 11.398438 326.367188 11.398438 " fill-opacity="1" fill-rule="nonzero"/></g><path fill="#f2f9f9" d="M 215.53125 302.316406 C 215.53125 301.878906 215.855469 301.554688 216.296875 301.554688 L 244.691406 301.554688 C 245.128906 301.554688 245.503906 301.878906 245.503906 302.316406 L 245.503906 330.710938 C 245.503906 331.152344 245.128906 331.527344 244.691406 331.527344 L 216.296875 331.527344 C 215.855469 331.527344 215.53125 331.152344 215.53125 330.710938 L 215.53125 302.316406 " fill-opacity="1" fill-rule="nonzero"/><path fill="#f2f9f9" d="M 235.328125 152.308594 C 235.328125 152.746094 235.003906 153.121094 234.582031 153.121094 L 206.1875 153.121094 C 205.746094 153.121094 205.355469 152.746094 205.355469 152.308594 L 205.355469 123.910156 C 205.355469 123.472656 205.746094 123.148438 206.1875 123.148438 L 234.582031 123.148438 C 235.003906 123.148438 235.328125 123.472656 235.328125 123.910156 L 235.328125 152.308594 " fill-opacity="1" fill-rule="nonzero"/><path fill="#f2f9f9" d="M 205.355469 179.566406 C 205.355469 179.144531 205.746094 178.769531 206.1875 178.769531 L 234.582031 178.769531 C 235.003906 178.769531 235.328125 179.144531 235.328125 179.566406 L 235.328125 207.976562 C 235.328125 208.398438 235.003906 208.726562 234.582031 208.726562 L 206.1875 208.726562 C 205.746094 208.726562 205.355469 208.398438 205.355469 207.976562 L 205.355469 179.566406 " fill-opacity="1" fill-rule="nonzero"/><path fill="#20b2aa" d="M 205.355469 235.1875 C 205.355469 234.75 205.746094 234.421875 206.1875 234.421875 L 234.582031 234.421875 C 235.003906 234.421875 235.328125 234.75 235.328125 235.1875 L 235.328125 263.632812 C 235.328125 264.023438 235.003906 264.394531 234.582031 264.394531 L 206.1875 264.394531 C 205.746094 264.394531 205.355469 264.023438 205.355469 263.632812 L 205.355469 235.1875 " fill-opacity="1" fill-rule="nonzero"/><path fill="#f2f9f9" d="M 309.449219 42.980469 L 309.449219 87.40625 C 309.449219 88.316406 308.683594 89.078125 307.757812 89.078125 L 67.652344 89.078125 C 66.726562 89.078125 65.914062 88.316406 65.914062 87.40625 L 65.914062 42.980469 C 65.914062 42.007812 66.726562 41.257812 67.652344 41.257812 L 307.757812 41.257812 C 308.683594 41.257812 309.449219 42.007812 309.449219 42.980469 " fill-opacity="1" fill-rule="nonzero"/><path fill="#f2f9f9" d="M 168.523438 152.308594 C 168.523438 152.746094 168.152344 153.121094 167.710938 153.121094 L 139.316406 153.121094 C 138.894531 153.121094 138.566406 152.746094 138.566406 152.308594 L 138.566406 123.910156 C 138.566406 123.472656 138.894531 123.148438 139.316406 123.148438 L 167.710938 123.148438 C 168.152344 123.148438 168.523438 123.472656 168.523438 123.910156 L 168.523438 152.308594 " fill-opacity="1" fill-rule="nonzero"/><path fill="#20b2aa" d="M 138.566406 179.566406 C 138.566406 179.144531 138.894531 178.769531 139.316406 178.769531 L 167.710938 178.769531 C 168.152344 178.769531 168.523438 179.144531 168.523438 179.566406 L 168.523438 207.976562 C 168.523438 208.398438 168.152344 208.726562 167.710938 208.726562 L 139.316406 208.726562 C 138.894531 208.726562 138.566406 208.398438 138.566406 207.976562 L 138.566406 179.566406 " fill-opacity="1" fill-rule="nonzero"/><path fill="#f2f9f9" d="M 138.566406 235.1875 C 138.566406 234.75 138.894531 234.421875 139.316406 234.421875 L 167.710938 234.421875 C 168.152344 234.421875 168.523438 234.75 168.523438 235.1875 L 168.523438 263.632812 C 168.523438 264.023438 168.152344 264.394531 167.710938 264.394531 L 139.316406 264.394531 C 138.894531 264.394531 138.566406 264.023438 138.566406 263.632812 L 138.566406 235.1875 " fill-opacity="1" fill-rule="nonzero"/><path fill="#f2f9f9" d="M 71.699219 179.566406 C 71.699219 179.144531 72.023438 178.769531 72.460938 178.769531 L 100.859375 178.769531 C 101.28125 178.769531 101.671875 179.144531 101.671875 179.566406 L 101.671875 207.976562 C 101.671875 208.398438 101.28125 208.726562 100.859375 208.726562 L 72.460938 208.726562 C 72.023438 208.726562 71.699219 208.398438 71.699219 207.976562 L 71.699219 179.566406 " fill-opacity="1" fill-rule="nonzero"/><path fill="#f2f9f9" d="M 71.699219 235.1875 C 71.699219 234.75 72.023438 234.421875 72.460938 234.421875 L 100.859375 234.421875 C 101.28125 234.421875 101.671875 234.75 101.671875 235.1875 L 101.671875 263.632812 C 101.671875 264.023438 101.28125 264.394531 100.859375 264.394531 L 72.460938 264.394531 C 72.023438 264.394531 71.699219 264.023438 71.699219 263.632812 L 71.699219 235.1875 " fill-opacity="1" fill-rule="nonzero"/><path fill="#20b2aa" d="M 101.671875 152.308594 C 101.671875 152.746094 101.28125 153.121094 100.859375 153.121094 L 72.460938 153.121094 C 72.023438 153.121094 71.699219 152.746094 71.699219 152.308594 L 71.699219 123.910156 C 71.699219 123.472656 72.023438 123.148438 72.460938 123.148438 L 100.859375 123.148438 C 101.28125 123.148438 101.671875 123.472656 101.671875 123.910156 L 101.671875 152.308594 " fill-opacity="1" fill-rule="nonzero"/><path fill="#f2f9f9" d="M 71.699219 302.804688 C 71.699219 302.089844 72.25 301.554688 72.949219 301.554688 L 185.996094 301.554688 C 186.714844 301.554688 187.25 302.089844 187.25 302.804688 L 187.25 333.25 C 187.25 333.964844 186.714844 334.5 185.996094 334.5 L 72.949219 334.5 C 72.25 334.5 71.699219 333.964844 71.699219 333.25 L 71.699219 302.804688 " fill-opacity="1" fill-rule="nonzero"/><path fill="#20b2aa" d="M 273.738281 302.316406 C 273.738281 301.878906 274.0625 301.554688 274.5 301.554688 L 302.945312 301.554688 C 303.320312 301.554688 303.710938 301.878906 303.710938 302.316406 L 303.710938 330.710938 C 303.710938 331.152344 303.386719 331.527344 302.945312 331.527344 L 274.5 331.527344 C 274.0625 331.527344 273.738281 331.152344 273.738281 330.710938 L 273.738281 302.316406 " fill-opacity="1" fill-rule="nonzero"/><path fill="#f2f9f9" d="M 303.710938 263.09375 C 303.710938 264.023438 302.945312 264.722656 302.035156 264.722656 L 272.390625 264.722656 C 271.480469 264.722656 270.761719 264.023438 270.761719 263.09375 L 270.761719 124.835938 C 270.761719 123.910156 271.480469 123.148438 272.390625 123.148438 L 302.035156 123.148438 C 302.945312 123.148438 303.710938 123.910156 303.710938 124.835938 L 303.710938 263.09375 " fill-opacity="1" fill-rule="nonzero"/><path fill="#20b2aa" d="M 295.4375 65.820312 C 294.671875 65.28125 293.746094 64.84375 292.722656 64.566406 C 291.699219 64.242188 290.609375 64.03125 289.535156 63.980469 L 297.550781 54.734375 L 297.550781 53.480469 L 282.660156 53.480469 L 282.660156 55.15625 L 295.160156 55.15625 L 286.9375 64.566406 L 287.425781 65.589844 L 288.675781 65.589844 C 289.75 65.589844 290.722656 65.707031 291.648438 65.917969 C 292.558594 66.144531 293.324219 66.453125 293.972656 66.890625 C 294.671875 67.378906 295.160156 67.933594 295.535156 68.566406 C 295.925781 69.214844 296.085938 69.914062 296.085938 70.792969 C 296.085938 71.605469 295.925781 72.304688 295.648438 72.953125 C 295.324219 73.605469 294.902344 74.140625 294.347656 74.578125 C 293.8125 75.066406 293.210938 75.441406 292.460938 75.71875 C 291.765625 75.929688 291 76.089844 290.234375 76.089844 C 288.675781 76.089844 287.261719 75.765625 286.074219 75.117188 C 284.839844 74.417969 283.75 73.492188 282.824219 72.253906 L 281.476562 73.394531 C 282.449219 74.695312 283.636719 75.71875 285.097656 76.464844 C 286.5625 77.277344 288.238281 77.652344 290.1875 77.652344 C 291.210938 77.652344 292.1875 77.503906 293.113281 77.164062 C 294.089844 76.839844 294.902344 76.417969 295.601562 75.765625 C 296.296875 75.179688 296.882812 74.417969 297.324219 73.605469 C 297.695312 72.742188 297.925781 71.769531 297.925781 70.742188 C 297.925781 69.65625 297.695312 68.679688 297.273438 67.867188 C 296.785156 67.054688 296.183594 66.402344 295.4375 65.820312 " fill-opacity="1" fill-rule="nonzero"/><path fill="#20b2aa" d="M 271.25 69.003906 C 272.273438 68.03125 273.203125 67.167969 273.949219 66.402344 C 274.714844 65.589844 275.316406 64.84375 275.800781 64.128906 C 276.273438 63.429688 276.664062 62.730469 276.875 61.984375 C 277.085938 61.269531 277.199219 60.503906 277.199219 59.691406 C 277.199219 58.78125 277.039062 57.917969 276.664062 57.105469 C 276.273438 56.292969 275.800781 55.59375 275.199219 54.992188 C 274.550781 54.410156 273.804688 53.96875 272.972656 53.644531 C 272.113281 53.320312 271.136719 53.15625 270.113281 53.15625 C 269.089844 53.15625 268.179688 53.253906 267.367188 53.53125 C 266.554688 53.742188 265.789062 54.066406 265.140625 54.554688 C 264.441406 54.992188 263.839844 55.53125 263.300781 56.132812 C 262.75 56.78125 262.214844 57.480469 261.675781 58.292969 L 262.976562 59.15625 C 264 57.757812 265.042969 56.617188 266.113281 55.855469 C 267.140625 55.109375 268.4375 54.734375 269.949219 54.734375 C 270.648438 54.734375 271.363281 54.894531 272.015625 55.109375 C 272.648438 55.320312 273.25 55.691406 273.738281 56.132812 C 274.226562 56.554688 274.617188 57.105469 274.875 57.757812 C 275.199219 58.359375 275.363281 59.058594 275.363281 59.804688 C 275.363281 60.453125 275.25 61.054688 275.101562 61.65625 C 274.875 62.242188 274.617188 62.84375 274.175781 63.496094 C 273.804688 64.128906 273.25 64.792969 272.550781 65.542969 C 271.851562 66.242188 271.039062 67.054688 270.0625 67.933594 L 261.191406 75.929688 L 261.191406 77.277344 L 277.410156 77.277344 L 277.410156 75.554688 L 264 75.554688 L 271.25 69.003906 " fill-opacity="1" fill-rule="nonzero"/><path fill="#20b2aa" d="M 249.179688 55.320312 L 249.664062 56.734375 L 254.265625 55.15625 L 254.265625 77.277344 L 256.054688 77.277344 L 256.054688 53.320312 L 254.65625 53.320312 L 249.179688 55.320312 " fill-opacity="1" fill-rule="nonzero"/><g fill="#20b2aa" fill-opacity="1"><g transform="translate(22.591406, 46.740993)"><g><path d="M -0.15625 5.78125 C -0.15625 4.71875 0.0859375 3.820312 0.578125 3.09375 C 1.066406 2.375 1.75 1.828125 2.625 1.453125 C 3.507812 1.085938 4.546875 0.90625 5.734375 0.90625 C 6.878906 0.90625 7.890625 1.097656 8.765625 1.484375 C 9.648438 1.878906 10.335938 2.457031 10.828125 3.21875 C 11.328125 3.988281 11.578125 4.929688 11.578125 6.046875 C 11.578125 6.773438 11.5 7.378906 11.34375 7.859375 C 11.195312 8.335938 10.984375 8.691406 10.703125 8.921875 C 10.429688 9.160156 10.128906 9.28125 9.796875 9.28125 C 9.453125 9.28125 9.175781 9.144531 8.96875 8.875 C 8.769531 8.613281 8.671875 8.285156 8.671875 7.890625 C 9.003906 7.890625 9.328125 7.828125 9.640625 7.703125 C 9.953125 7.585938 10.210938 7.394531 10.421875 7.125 C 10.628906 6.851562 10.734375 6.484375 10.734375 6.015625 C 10.734375 5.210938 10.535156 4.566406 10.140625 4.078125 C 9.753906 3.585938 9.1875 3.234375 8.4375 3.015625 C 7.695312 2.796875 6.796875 2.6875 5.734375 2.6875 C 4.773438 2.6875 3.929688 2.800781 3.203125 3.03125 C 2.472656 3.257812 1.90625 3.617188 1.5 4.109375 C 1.09375 4.597656 0.890625 5.234375 0.890625 6.015625 C 0.890625 6.535156 0.953125 6.976562 1.078125 7.34375 C 1.210938 7.707031 1.382812 8.015625 1.59375 8.265625 C 1.800781 8.515625 2.019531 8.726562 2.25 8.90625 C 2.195312 9 2.117188 9.070312 2.015625 9.125 C 1.921875 9.1875 1.789062 9.21875 1.625 9.21875 C 1.425781 9.21875 1.222656 9.144531 1.015625 9 C 0.804688 8.863281 0.613281 8.65625 0.4375 8.375 C 0.257812 8.101562 0.113281 7.75 0 7.3125 C -0.101562 6.882812 -0.15625 6.375 -0.15625 5.78125 Z M -0.15625 5.78125 "/></g></g></g><g fill="#20b2aa" fill-opacity="1"><g transform="translate(22.591406, 56.562632)"><g><path d="M -0.15625 3.28125 C -0.15625 2.8125 -0.0625 2.382812 0.125 2 C 0.3125 1.625 0.59375 1.328125 0.96875 1.109375 C 1.34375 0.898438 1.820312 0.796875 2.40625 0.796875 C 3.257812 0.796875 3.882812 1.097656 4.28125 1.703125 C 4.6875 2.304688 4.910156 3.222656 4.953125 4.453125 L 5.015625 5.78125 L 5.96875 5.78125 C 6.351562 5.78125 6.691406 5.742188 6.984375 5.671875 C 7.273438 5.609375 7.503906 5.46875 7.671875 5.25 C 7.847656 5.039062 7.9375 4.71875 7.9375 4.28125 C 7.9375 3.882812 7.859375 3.578125 7.703125 3.359375 C 7.554688 3.148438 7.351562 3.007812 7.09375 2.9375 C 6.832031 2.863281 6.53125 2.828125 6.1875 2.828125 C 6.1875 2.378906 6.265625 2.039062 6.421875 1.8125 C 6.578125 1.582031 6.835938 1.46875 7.203125 1.46875 C 7.578125 1.46875 7.875 1.597656 8.09375 1.859375 C 8.320312 2.117188 8.484375 2.46875 8.578125 2.90625 C 8.679688 3.34375 8.734375 3.828125 8.734375 4.359375 C 8.734375 5.335938 8.523438 6.066406 8.109375 6.546875 C 7.691406 7.035156 6.976562 7.28125 5.96875 7.28125 L 1.828125 7.28125 C 1.523438 7.28125 1.289062 7.3125 1.125 7.375 C 0.957031 7.4375 0.835938 7.539062 0.765625 7.6875 C 0.703125 7.84375 0.671875 8.035156 0.671875 8.265625 L 0.671875 8.3125 L 0 8.3125 L 0 6.15625 L 1.375 5.90625 L 1.375 5.78125 C 1.070312 5.550781 0.804688 5.328125 0.578125 5.109375 C 0.347656 4.898438 0.164062 4.65625 0.03125 4.375 C -0.09375 4.09375 -0.15625 3.726562 -0.15625 3.28125 Z M 0.828125 3.640625 C 0.828125 4.078125 0.914062 4.453125 1.09375 4.765625 C 1.28125 5.085938 1.539062 5.335938 1.875 5.515625 C 2.21875 5.691406 2.613281 5.78125 3.0625 5.78125 L 4.359375 5.78125 L 4.296875 4.75 C 4.273438 4.144531 4.1875 3.664062 4.03125 3.3125 C 3.875 2.96875 3.648438 2.722656 3.359375 2.578125 C 3.078125 2.429688 2.726562 2.359375 2.3125 2.359375 C 1.988281 2.359375 1.71875 2.40625 1.5 2.5 C 1.28125 2.59375 1.113281 2.734375 1 2.921875 C 0.882812 3.117188 0.828125 3.359375 0.828125 3.640625 Z M 0.828125 3.640625 "/></g></g></g><g fill="#20b2aa" fill-opacity="1"><g transform="translate(22.591406, 65.568468)"><g><path d="M 0 0.203125 L 0.671875 0.203125 L 0.671875 0.421875 C 0.671875 0.660156 0.695312 0.878906 0.75 1.078125 C 0.800781 1.273438 0.910156 1.429688 1.078125 1.546875 C 1.242188 1.671875 1.492188 1.734375 1.828125 1.734375 L 10.40625 1.734375 C 10.71875 1.734375 10.953125 1.671875 11.109375 1.546875 C 11.265625 1.421875 11.363281 1.257812 11.40625 1.0625 C 11.457031 0.863281 11.484375 0.648438 11.484375 0.421875 L 11.484375 0.203125 L 12.15625 0.203125 L 12.15625 3.234375 L 1.828125 3.234375 C 1.492188 3.234375 1.242188 3.289062 1.078125 3.40625 C 0.910156 3.519531 0.800781 3.675781 0.75 3.875 C 0.695312 4.082031 0.671875 4.304688 0.671875 4.546875 L 0.671875 4.75 L 0 4.75 Z M 0 0.203125 "/></g></g></g><g fill="#20b2aa" fill-opacity="1"><g transform="translate(22.591406, 70.527273)"><g><path d="M -0.15625 4.53125 C -0.15625 3.820312 -0.0078125 3.191406 0.28125 2.640625 C 0.582031 2.097656 1.054688 1.664062 1.703125 1.34375 C 2.347656 1.03125 3.191406 0.875 4.234375 0.875 C 5.378906 0.875 6.28125 1.03125 6.9375 1.34375 C 7.59375 1.664062 8.054688 2.09375 8.328125 2.625 C 8.597656 3.164062 8.734375 3.773438 8.734375 4.453125 C 8.734375 4.898438 8.675781 5.335938 8.5625 5.765625 C 8.445312 6.191406 8.265625 6.539062 8.015625 6.8125 C 7.773438 7.09375 7.472656 7.234375 7.109375 7.234375 C 6.859375 7.234375 6.65625 7.175781 6.5 7.0625 C 6.351562 6.957031 6.25 6.800781 6.1875 6.59375 C 6.125 6.382812 6.09375 6.125 6.09375 5.8125 C 6.4375 5.8125 6.742188 5.769531 7.015625 5.6875 C 7.296875 5.601562 7.519531 5.460938 7.6875 5.265625 C 7.851562 5.078125 7.9375 4.804688 7.9375 4.453125 C 7.9375 4.046875 7.828125 3.6875 7.609375 3.375 C 7.398438 3.070312 7.03125 2.835938 6.5 2.671875 C 5.96875 2.515625 5.21875 2.4375 4.25 2.4375 C 3.5 2.4375 2.867188 2.515625 2.359375 2.671875 C 1.859375 2.835938 1.484375 3.097656 1.234375 3.453125 C 0.992188 3.804688 0.875 4.269531 0.875 4.84375 C 0.875 5.175781 0.921875 5.476562 1.015625 5.75 C 1.117188 6.03125 1.253906 6.273438 1.421875 6.484375 C 1.597656 6.691406 1.789062 6.851562 2 6.96875 C 1.9375 7.0625 1.851562 7.128906 1.75 7.171875 C 1.644531 7.222656 1.519531 7.25 1.375 7.25 C 1.132812 7.25 0.894531 7.144531 0.65625 6.9375 C 0.414062 6.738281 0.21875 6.4375 0.0625 6.03125 C -0.0820312 5.632812 -0.15625 5.132812 -0.15625 4.53125 Z M -0.15625 4.53125 "/></g></g></g><g fill="#20b2aa" fill-opacity="1"><g transform="translate(22.591406, 78.397386)"><g><path d="M -0.15625 4.375 C -0.15625 3.53125 0.0859375 2.878906 0.578125 2.421875 C 1.078125 1.960938 1.875 1.734375 2.96875 1.734375 L 6.8125 1.734375 C 7.132812 1.734375 7.375 1.671875 7.53125 1.546875 C 7.6875 1.421875 7.785156 1.257812 7.828125 1.0625 C 7.878906 0.863281 7.90625 0.648438 7.90625 0.421875 L 7.90625 0.375 L 8.578125 0.375 L 8.578125 3.234375 L 3.0625 3.234375 C 2.601562 3.234375 2.207031 3.28125 1.875 3.375 C 1.539062 3.476562 1.285156 3.648438 1.109375 3.890625 C 0.941406 4.140625 0.859375 4.476562 0.859375 4.90625 C 0.859375 5.375 0.96875 5.757812 1.1875 6.0625 C 1.40625 6.363281 1.707031 6.582031 2.09375 6.71875 C 2.488281 6.851562 2.941406 6.921875 3.453125 6.921875 L 6.75 6.921875 C 7.09375 6.921875 7.34375 6.863281 7.5 6.75 C 7.664062 6.632812 7.773438 6.476562 7.828125 6.28125 C 7.878906 6.082031 7.90625 5.859375 7.90625 5.609375 L 7.90625 5.5625 L 8.578125 5.5625 L 8.578125 8.4375 L 1.75 8.4375 C 1.4375 8.4375 1.203125 8.492188 1.046875 8.609375 C 0.890625 8.734375 0.785156 8.894531 0.734375 9.09375 C 0.691406 9.289062 0.671875 9.507812 0.671875 9.75 L 0.671875 9.796875 L 0 9.796875 L 0 7.25 L 1.296875 7.046875 L 1.296875 6.953125 C 0.703125 6.628906 0.3125 6.25 0.125 5.8125 C -0.0625 5.375 -0.15625 4.894531 -0.15625 4.375 Z M -0.15625 4.375 "/></g></g></g><g fill="#20b2aa" fill-opacity="1"><g transform="translate(22.591406, 88.554944)"><g><path d="M 0 0.203125 L 0.671875 0.203125 L 0.671875 0.421875 C 0.671875 0.660156 0.695312 0.878906 0.75 1.078125 C 0.800781 1.273438 0.910156 1.429688 1.078125 1.546875 C 1.242188 1.671875 1.492188 1.734375 1.828125 1.734375 L 10.40625 1.734375 C 10.71875 1.734375 10.953125 1.671875 11.109375 1.546875 C 11.265625 1.421875 11.363281 1.257812 11.40625 1.0625 C 11.457031 0.863281 11.484375 0.648438 11.484375 0.421875 L 11.484375 0.203125 L 12.15625 0.203125 L 12.15625 3.234375 L 1.828125 3.234375 C 1.492188 3.234375 1.242188 3.289062 1.078125 3.40625 C 0.910156 3.519531 0.800781 3.675781 0.75 3.875 C 0.695312 4.082031 0.671875 4.304688 0.671875 4.546875 L 0.671875 4.75 L 0 4.75 Z M 0 0.203125 "/></g></g></g><g fill="#20b2aa" fill-opacity="1"><g transform="translate(22.591406, 93.513749)"><g><path d="M -0.15625 3.28125 C -0.15625 2.8125 -0.0625 2.382812 0.125 2 C 0.3125 1.625 0.59375 1.328125 0.96875 1.109375 C 1.34375 0.898438 1.820312 0.796875 2.40625 0.796875 C 3.257812 0.796875 3.882812 1.097656 4.28125 1.703125 C 4.6875 2.304688 4.910156 3.222656 4.953125 4.453125 L 5.015625 5.78125 L 5.96875 5.78125 C 6.351562 5.78125 6.691406 5.742188 6.984375 5.671875 C 7.273438 5.609375 7.503906 5.46875 7.671875 5.25 C 7.847656 5.039062 7.9375 4.71875 7.9375 4.28125 C 7.9375 3.882812 7.859375 3.578125 7.703125 3.359375 C 7.554688 3.148438 7.351562 3.007812 7.09375 2.9375 C 6.832031 2.863281 6.53125 2.828125 6.1875 2.828125 C 6.1875 2.378906 6.265625 2.039062 6.421875 1.8125 C 6.578125 1.582031 6.835938 1.46875 7.203125 1.46875 C 7.578125 1.46875 7.875 1.597656 8.09375 1.859375 C 8.320312 2.117188 8.484375 2.46875 8.578125 2.90625 C 8.679688 3.34375 8.734375 3.828125 8.734375 4.359375 C 8.734375 5.335938 8.523438 6.066406 8.109375 6.546875 C 7.691406 7.035156 6.976562 7.28125 5.96875 7.28125 L 1.828125 7.28125 C 1.523438 7.28125 1.289062 7.3125 1.125 7.375 C 0.957031 7.4375 0.835938 7.539062 0.765625 7.6875 C 0.703125 7.84375 0.671875 8.035156 0.671875 8.265625 L 0.671875 8.3125 L 0 8.3125 L 0 6.15625 L 1.375 5.90625 L 1.375 5.78125 C 1.070312 5.550781 0.804688 5.328125 0.578125 5.109375 C 0.347656 4.898438 0.164062 4.65625 0.03125 4.375 C -0.09375 4.09375 -0.15625 3.726562 -0.15625 3.28125 Z M 0.828125 3.640625 C 0.828125 4.078125 0.914062 4.453125 1.09375 4.765625 C 1.28125 5.085938 1.539062 5.335938 1.875 5.515625 C 2.21875 5.691406 2.613281 5.78125 3.0625 5.78125 L 4.359375 5.78125 L 4.296875 4.75 C 4.273438 4.144531 4.1875 3.664062 4.03125 3.3125 C 3.875 2.96875 3.648438 2.722656 3.359375 2.578125 C 3.078125 2.429688 2.726562 2.359375 2.3125 2.359375 C 1.988281 2.359375 1.71875 2.40625 1.5 2.5 C 1.28125 2.59375 1.113281 2.734375 1 2.921875 C 0.882812 3.117188 0.828125 3.359375 0.828125 3.640625 Z M 0.828125 3.640625 "/></g></g></g><g fill="#20b2aa" fill-opacity="1"><g transform="translate(22.591406, 102.519584)"><g><path d="M -0.15625 3.84375 C -0.15625 3.03125 0.0234375 2.4375 0.390625 2.0625 C 0.753906 1.695312 1.394531 1.515625 2.3125 1.515625 L 7.65625 1.515625 L 7.65625 0.296875 L 8.296875 0.296875 C 8.296875 0.492188 8.335938 0.707031 8.421875 0.9375 C 8.503906 1.175781 8.632812 1.378906 8.8125 1.546875 C 9.007812 1.734375 9.242188 1.882812 9.515625 2 C 9.796875 2.113281 10.140625 2.207031 10.546875 2.28125 L 10.546875 3.03125 L 8.578125 3.03125 L 8.578125 5.125 L 7.65625 5.125 L 7.65625 3.03125 L 2.265625 3.03125 C 1.722656 3.03125 1.320312 3.140625 1.0625 3.359375 C 0.8125 3.585938 0.6875 3.878906 0.6875 4.234375 C 0.6875 4.429688 0.695312 4.609375 0.71875 4.765625 C 0.738281 4.929688 0.765625 5.097656 0.796875 5.265625 L 0.09375 5.265625 C 0.03125 5.128906 -0.0234375 4.921875 -0.078125 4.640625 C -0.128906 4.359375 -0.15625 4.09375 -0.15625 3.84375 Z M -0.15625 3.84375 "/></g></g></g><g fill="#20b2aa" fill-opacity="1"><g transform="translate(22.591406, 108.150237)"><g><path d="M -0.15625 4.59375 C -0.15625 3.425781 0.222656 2.515625 0.984375 1.859375 C 1.753906 1.203125 2.832031 0.875 4.21875 0.875 C 5.71875 0.875 6.84375 1.179688 7.59375 1.796875 C 8.351562 2.421875 8.734375 3.300781 8.734375 4.4375 C 8.734375 5.46875 8.410156 6.28125 7.765625 6.875 C 7.128906 7.46875 6.175781 7.765625 4.90625 7.765625 L 4.171875 7.765625 L 4.171875 2.4375 C 3.015625 2.457031 2.171875 2.664062 1.640625 3.0625 C 1.109375 3.457031 0.84375 4.039062 0.84375 4.8125 C 0.84375 5.363281 0.957031 5.832031 1.1875 6.21875 C 1.414062 6.613281 1.675781 6.910156 1.96875 7.109375 C 1.9375 7.179688 1.867188 7.25 1.765625 7.3125 C 1.671875 7.375 1.554688 7.40625 1.421875 7.40625 C 1.210938 7.40625 0.984375 7.300781 0.734375 7.09375 C 0.492188 6.894531 0.285156 6.585938 0.109375 6.171875 C -0.0664062 5.753906 -0.15625 5.226562 -0.15625 4.59375 Z M 5.046875 6.140625 C 5.890625 6.140625 6.570312 6.007812 7.09375 5.75 C 7.613281 5.488281 7.875 5.039062 7.875 4.40625 C 7.875 3.8125 7.628906 3.351562 7.140625 3.03125 C 6.660156 2.707031 5.960938 2.519531 5.046875 2.46875 Z M 5.046875 6.140625 "/></g></g></g><g fill="#20b2aa" fill-opacity="1"><g transform="translate(22.591406, 116.708186)"><g><path d="M 0 0.609375 L 0.671875 0.609375 L 0.671875 0.8125 C 0.671875 1.050781 0.691406 1.269531 0.734375 1.46875 C 0.785156 1.664062 0.890625 1.820312 1.046875 1.9375 C 1.203125 2.0625 1.4375 2.125 1.75 2.125 L 9.65625 2.125 C 9.976562 2.125 10.21875 2.0625 10.375 1.9375 C 10.53125 1.820312 10.628906 1.664062 10.671875 1.46875 C 10.722656 1.269531 10.75 1.050781 10.75 0.8125 L 10.75 0.609375 L 11.421875 0.609375 L 11.421875 4.25 L 2.265625 7.5625 L 11.421875 10.84375 L 11.421875 14.40625 L 10.75 14.40625 L 10.75 14.1875 C 10.75 13.957031 10.722656 13.738281 10.671875 13.53125 C 10.617188 13.332031 10.507812 13.171875 10.34375 13.046875 C 10.1875 12.929688 9.9375 12.875 9.59375 12.875 L 1.828125 12.875 C 1.492188 12.875 1.242188 12.929688 1.078125 13.046875 C 0.910156 13.171875 0.800781 13.332031 0.75 13.53125 C 0.695312 13.738281 0.671875 13.957031 0.671875 14.1875 L 0.671875 14.40625 L 0 14.40625 L 0 10.140625 L 0.671875 10.140625 L 0.671875 10.1875 C 0.671875 10.425781 0.691406 10.628906 0.734375 10.796875 C 0.785156 10.960938 0.882812 11.09375 1.03125 11.1875 C 1.175781 11.28125 1.394531 11.332031 1.6875 11.34375 L 10.21875 11.34375 L 0 7.6875 L 0 6.8125 L 10.1875 3.109375 L 1.828125 3.109375 C 1.492188 3.109375 1.242188 3.148438 1.078125 3.234375 C 0.910156 3.328125 0.800781 3.460938 0.75 3.640625 C 0.695312 3.816406 0.671875 4.019531 0.671875 4.25 L 0.671875 4.296875 L 0 4.296875 Z M 0 0.609375 "/></g></g></g><g fill="#20b2aa" fill-opacity="1"><g transform="translate(22.591406, 131.712579)"><g><path d="M -0.15625 4.59375 C -0.15625 3.425781 0.222656 2.515625 0.984375 1.859375 C 1.753906 1.203125 2.832031 0.875 4.21875 0.875 C 5.71875 0.875 6.84375 1.179688 7.59375 1.796875 C 8.351562 2.421875 8.734375 3.300781 8.734375 4.4375 C 8.734375 5.46875 8.410156 6.28125 7.765625 6.875 C 7.128906 7.46875 6.175781 7.765625 4.90625 7.765625 L 4.171875 7.765625 L 4.171875 2.4375 C 3.015625 2.457031 2.171875 2.664062 1.640625 3.0625 C 1.109375 3.457031 0.84375 4.039062 0.84375 4.8125 C 0.84375 5.363281 0.957031 5.832031 1.1875 6.21875 C 1.414062 6.613281 1.675781 6.910156 1.96875 7.109375 C 1.9375 7.179688 1.867188 7.25 1.765625 7.3125 C 1.671875 7.375 1.554688 7.40625 1.421875 7.40625 C 1.210938 7.40625 0.984375 7.300781 0.734375 7.09375 C 0.492188 6.894531 0.285156 6.585938 0.109375 6.171875 C -0.0664062 5.753906 -0.15625 5.226562 -0.15625 4.59375 Z M 5.046875 6.140625 C 5.890625 6.140625 6.570312 6.007812 7.09375 5.75 C 7.613281 5.488281 7.875 5.039062 7.875 4.40625 C 7.875 3.8125 7.628906 3.351562 7.140625 3.03125 C 6.660156 2.707031 5.960938 2.519531 5.046875 2.46875 Z M 5.046875 6.140625 "/></g></g></g></svg>